<svg xmlns="http://www.w3.org/2000/svg" xmlns:xlink="http://www.w3.org/1999/xlink" width="500" zoomAndPan="magnify" viewBox="0 0 375 374.999991" height="500" preserveAspectRatio="xMidYMid meet" version="1.0"><defs><clipPath id="1e1dfe1058"><path d="M 0 3.75 L 374 3.75 L 374 371.25 L 0 371.25 Z M 0 3.75 " clip-rule="nonzero"/></clipPath></defs><rect x="-37.5" width="450" fill="#ffffff" y="-37.499999" height="449.999989" fill-opacity="1"/><rect x="-37.5" width="450" fill="#ffffff" y="-37.499999" height="449.999989" fill-opacity="1"/><rect x="-37.5" width="450" fill="#f0f0f0" y="-37.499999" height="449.999989" fill-opacity="1"/><g clip-path="url(#1e1dfe1058)"><path fill="#ffffff" d="M 186.941406 3.828125 C 83.566406 3.828125 0 88.011719 0 192.15625 C 0 275.40625 53.542969 345.875 127.824219 370.816406 C 137.113281 372.691406 140.515625 366.765625 140.515625 361.78125 C 140.515625 357.414062 140.207031 342.449219 140.207031 326.855469 C 88.207031 338.082031 77.375 304.40625 77.375 304.40625 C 69.019531 282.578125 56.636719 276.96875 56.636719 276.96875 C 39.617188 265.429688 57.875 265.429688 57.875 265.429688 C 76.757812 266.679688 86.664062 284.761719 86.664062 284.761719 C 103.375 313.445312 130.300781 305.34375 141.132812 300.351562 C 142.679688 288.191406 147.636719 279.773438 152.898438 275.097656 C 111.421875 270.730469 67.78125 254.519531 67.78125 182.175781 C 67.78125 161.597656 75.207031 144.761719 86.96875 131.667969 C 85.113281 126.992188 78.613281 107.65625 88.828125 81.777344 C 88.828125 81.777344 104.613281 76.785156 140.203125 101.109375 C 155.507812 96.96875 171.085938 94.890625 186.941406 94.871094 C 202.726562 94.871094 218.816406 97.054688 233.675781 101.109375 C 269.269531 76.785156 285.054688 81.777344 285.054688 81.777344 C 295.269531 107.65625 288.765625 126.992188 286.910156 131.667969 C 298.980469 144.761719 306.097656 161.597656 306.097656 182.175781 C 306.097656 254.519531 262.460938 270.417969 220.675781 275.097656 C 227.488281 281.019531 233.363281 292.242188 233.363281 310.019531 C 233.363281 335.273438 233.058594 355.542969 233.058594 361.777344 C 233.058594 366.765625 236.464844 372.691406 245.746094 370.820312 C 320.027344 345.871094 373.574219 275.40625 373.574219 192.15625 C 373.878906 88.011719 290.003906 3.828125 186.941406 3.828125 Z M 186.941406 3.828125 " fill-opacity="1" fill-rule="evenodd"/></g></svg>