<svg xmlns="http://www.w3.org/2000/svg" xmlns:xlink="http://www.w3.org/1999/xlink" width="500" zoomAndPan="magnify" viewBox="0 0 375 374.999991" height="500" preserveAspectRatio="xMidYMid meet" version="1.0"><defs><clipPath id="a58e84cfb0"><path d="M 6.164062 6.164062 L 369 6.164062 L 369 369.164062 L 6.164062 369.164062 Z M 6.164062 6.164062 " clip-rule="nonzero"/></clipPath></defs><g clip-path="url(#a58e84cfb0)"><path fill="#ffffff" d="M 338.839844 6.164062 L 36.671875 6.164062 C 19.964844 6.164062 6.527344 19.785156 6.527344 36.308594 L 6.527344 339.019531 C 6.527344 355.726562 20.148438 369.164062 36.671875 369.164062 L 338.65625 369.164062 C 355.363281 369.164062 368.800781 355.546875 368.800781 339.019531 L 368.800781 36.308594 C 368.984375 19.785156 355.546875 6.164062 338.839844 6.164062 Z M 113.847656 305.609375 L 60.28125 305.609375 L 60.28125 144.71875 L 113.847656 144.71875 Z M 86.972656 125.289062 C 70.085938 125.289062 56.464844 111.667969 56.464844 94.78125 C 56.464844 77.894531 70.085938 64.273438 86.972656 64.273438 C 103.859375 64.273438 117.480469 77.894531 117.480469 94.78125 C 117.480469 111.667969 103.859375 125.289062 86.972656 125.289062 Z M 315.414062 305.609375 L 261.664062 305.609375 L 260.390625 210.09375 C 260.390625 210.09375 261.664062 184.667969 233.878906 184.851562 C 206.097656 185.03125 202.285156 210.09375 202.285156 210.09375 L 202.285156 305.609375 L 148.167969 305.609375 L 148.167969 144.71875 L 200.105469 144.71875 L 200.105469 166.875 C 200.105469 166.875 202.285156 159.609375 214.269531 151.074219 C 226.253906 142.539062 246.046875 140.722656 254.582031 141.085938 C 263.117188 141.449219 274.738281 139.996094 294.167969 153.433594 C 315.050781 167.78125 315.597656 205.371094 315.597656 205.371094 Z M 315.414062 305.609375 " fill-opacity="1" fill-rule="nonzero"/></g></svg>